Coordinates
version=1
nRows=38
nColumns=12
inDegrees=yes

Units are S.I. units (second, meters, Newtons, ...)
Angles are in degrees

endheader
time	SC_y	SC_z	SC_x	AC_y	AC_z	AC_x	GH_y	GH_z	GH_yy	EL_x	PS_y
       0.0              -19.52          3.505          7.274          56.55         -8.269          4.215         -10.92          31.26         -154.0          14.25          159.0
  0.004803              -19.52          3.505          7.281          56.56         -8.269          4.214         -10.93          31.26         -154.0          14.26          159.0
  0.009606              -19.52          3.504          7.288          56.56         -8.269          4.212         -10.94          31.26         -154.0          14.26          159.0
   0.01441              -19.53          3.503          7.296          56.56          -8.27          4.211         -10.95          31.25         -154.0          14.27          159.0
   0.01921              -19.53          3.502          7.304          56.56          -8.27           4.21         -10.96          31.25         -154.0          14.28          159.0
   0.02401              -19.53          3.501          7.313          56.56          -8.27          4.208         -10.98          31.25         -154.0          14.29          159.0
   0.02882              -19.54            3.5          7.322          56.56          -8.27          4.206         -10.99          31.25         -154.0          14.31          159.0
   0.03362              -19.54          3.498          7.332          56.56          -8.27          4.205          -11.0          31.24         -154.0          14.32          159.0
   0.03842              -19.54          3.497          7.343          56.56          -8.27          4.203         -11.02          31.24         -154.0          14.33          159.0
   0.04322              -19.55          3.496          7.355          56.57         -8.271          4.201         -11.04          31.23         -154.0          14.35          158.9
   0.04803              -19.55          3.494          7.367          56.57         -8.271          4.199         -11.05          31.23         -154.0          14.36          158.9
   0.05283              -19.56          3.493           7.38          56.57         -8.271          4.196         -11.07          31.23         -154.0          14.38          158.9
   0.05763              -19.56          3.491          7.395          56.57         -8.271          4.194         -11.09          31.22         -154.0          14.39          158.9
   0.06244              -19.57          3.489           7.41          56.57         -8.272          4.191         -11.12          31.22         -154.0          14.41          158.9
   0.06724              -19.58          3.487          7.427          56.58         -8.272          4.188         -11.14          31.21         -154.0          14.43          158.9
   0.07204              -19.58          3.485          7.445          56.58         -8.272          4.185         -11.17           31.2         -154.1          14.46          158.9
   0.07684              -19.59          3.483          7.465          56.58         -8.273          4.182         -11.19           31.2         -154.1          14.48          158.9
   0.08165               -19.6           3.48          7.487          56.58         -8.273          4.178         -11.23          31.19         -154.1          14.51          158.9
   0.08645              -19.61          3.477           7.51          56.59         -8.273          4.174         -11.26          31.18         -154.1          14.53          158.9
   0.09125              -19.62          3.474          7.536          56.59         -8.274          4.169          -11.3          31.17         -154.1          14.57          158.8
   0.09606              -19.63          3.471          7.564           56.6         -8.274          4.165         -11.34          31.16         -154.1           14.6          158.8
    0.1009              -19.64          3.467          7.596           56.6         -8.275          4.159         -11.38          31.15         -154.1          14.64          158.8
    0.1057              -19.65          3.463           7.63          56.61         -8.276          4.153         -11.43          31.14         -154.1          14.68          158.8
    0.1105              -19.67          3.458          7.668          56.61         -8.276          4.147         -11.49          31.13         -154.1          14.73          158.8
    0.1153              -19.68          3.453          7.711          56.62         -8.277          4.139         -11.55          31.11         -154.1          14.78          158.7
    0.1201               -19.7          3.448          7.758          56.62         -8.278          4.131         -11.62           31.1         -154.2          14.83          158.7
    0.1249              -19.72          3.441          7.811          56.63         -8.279          4.122         -11.69          31.08         -154.2           14.9          158.7
    0.1297              -19.74          3.434          7.871          56.64          -8.28          4.112         -11.78          31.06         -154.2          14.97          158.6
    0.1345              -19.77          3.426          7.938          56.65         -8.281            4.1         -11.88          31.04         -154.2          15.05          158.6
    0.1393               -19.8          3.417          8.014          56.66         -8.282          4.087         -11.99          31.01         -154.2          15.15          158.6
    0.1441              -19.83          3.407          8.102          56.67         -8.284          4.072         -12.11          30.98         -154.3          15.25          158.5
    0.1489              -19.87          3.395          8.202          56.69         -8.286          4.054         -12.26          30.95         -154.3          15.37          158.5
    0.1537              -19.92          3.381          8.318           56.7         -8.288          4.034         -12.42          30.91         -154.3          15.51          158.4
    0.1585              -19.97          3.365          8.452          56.72          -8.29          4.011         -12.62          30.86         -154.4          15.68          158.3
    0.1633              -20.03          3.346          8.609          56.75         -8.293          3.984         -12.84          30.81         -154.4          15.87          158.2
    0.1681               -20.1          3.324          8.795          56.77         -8.296          3.952         -13.11          30.75         -154.5          16.09          158.1
    0.1729              -20.18          3.298          9.015           56.8           -8.3          3.914         -13.43          30.67         -154.6          16.36          158.0
    0.1777              -20.28          3.266          9.279          56.84         -8.305          3.868         -13.81          30.59         -154.7          16.68          157.8
